<svg xmlns="http://www.w3.org/2000/svg" viewBox="0 0 220 80">
  <defs>
    <radialGradient id="pg" cx="65%" cy="40%" r="65%">
      <stop offset="0%" stop-color="#FFC926"/>
      <stop offset="100%" stop-color="#E8A000"/>
    </radialGradient>
  </defs>

  <!-- Main fuselage body -->
  <path d="
    M 24 30
    L 188 30
    C 204 30, 216 34, 220 39
    C 216 44, 204 48, 188 48
    L 24 48
    C 14 48, 8 45, 8 41
    L 8 37
    C 8 33, 14 30, 24 30 Z
  " fill="url(#pg)"/>

  <!-- Cabin roof (slight hump) -->
  <path d="
    M 28 30
    L 182 30
    C 196 30, 208 27, 214 24
    C 217 28, 210 30, 196 30
    L 30 30
    C 18 30, 10 33, 8 39
    C 7 34, 14 30, 24 30
    Z
  " fill="url(#pg)"/>

  <!-- Main swept wings -->
  <path d="
    M 148 48
    C 124 54, 88 64, 56 76
    L 68 80
    C 100 68, 134 58, 156 52
    Z
  " fill="url(#pg)"/>

  <!-- Engine pod under wing -->
  <path d="
    M 110 62 C 98 62, 90 65, 90 70
    L 90 76 C 90 80, 98 82, 110 82
    L 136 82 C 147 82, 153 80, 153 76
    L 153 70 C 153 65, 147 62, 136 62 Z
  " fill="#CC8500"/>
  <ellipse cx="90" cy="72" rx="4" ry="9" fill="#0B1120" opacity="0.65"/>

  <!-- Vertical tail fin -->
  <path d="
    M 14 30
    C 20 22, 28 13, 38 6
    L 52 8
    C 42 15, 33 24, 26 30
    Z
  " fill="url(#pg)"/>

  <!-- Horizontal stabiliser -->
  <path d="
    M 14 48
    L 0 60
    L 10 62
    L 24 50
    Z
  " fill="url(#pg)"/>

  <!-- Cockpit windows -->
  <path d="M 196 32 L 208 33 L 209 39 L 196 39 Z" fill="#0B1120" opacity="0.45"/>
  <path d="M 182 31 L 193 32 L 194 38 L 183 38 Z" fill="#0B1120" opacity="0.30"/>
</svg>
